<svg width="20" height="20" viewBox="0 0 20 20" fill="none" xmlns="http://www.w3.org/2000/svg">
<path d="M15.6221 14.3214C15.2252 13.9374 14.5921 13.9479 14.2081 14.3448C13.8241 14.7417 13.8346 15.3748 14.2315 15.7588L15.6221 14.3214ZM17.7047 19.1188C18.1016 19.5028 18.7347 19.4923 19.1187 19.0954C19.5027 18.6985 19.4922 18.0654 19.0953 17.6814L17.7047 19.1188ZM9.39998 4.2001C8.84769 4.2001 8.39998 4.64781 8.39998 5.2001C8.39998 5.75238 8.84769 6.2001 9.39998 6.2001V4.2001ZM12 8.8001C12 9.35238 12.4477 9.8001 13 9.8001C13.5523 9.8001 14 9.35238 14 8.8001H12ZM16.28 9.4401C16.28 13.2177 13.2176 16.2801 9.43998 16.2801V18.2801C14.3222 18.2801 18.28 14.3223 18.28 9.4401H16.28ZM9.43998 16.2801C5.66235 16.2801 2.59998 13.2177 2.59998 9.4401H0.599976C0.599976 14.3223 4.55778 18.2801 9.43998 18.2801V16.2801ZM2.59998 9.4401C2.59998 5.66247 5.66235 2.6001 9.43998 2.6001V0.600098C4.55778 0.600098 0.599976 4.5579 0.599976 9.4401H2.59998ZM9.43998 2.6001C13.2176 2.6001 16.28 5.66247 16.28 9.4401H18.28C18.28 4.5579 14.3222 0.600098 9.43998 0.600098V2.6001ZM14.2315 15.7588L17.7047 19.1188L19.0953 17.6814L15.6221 14.3214L14.2315 15.7588ZM9.39998 6.2001C10.8359 6.2001 12 7.36416 12 8.8001H14C14 6.25959 11.9405 4.2001 9.39998 4.2001V6.2001Z" fill="black"/>
</svg>
