<svg id="visual" viewBox="0 0 900 600" width="900" height="600" xmlns="http://www.w3.org/2000/svg" xmlns:xlink="http://www.w3.org/1999/xlink" version="1.1"><rect x="0" y="0" width="900" height="600" fill="#140021"></rect><path d="M0 284L129 284L129 266L257 266L257 348L386 348L386 306L514 306L514 321L643 321L643 353L771 353L771 369L900 369L900 307L900 601L900 601L771 601L771 601L643 601L643 601L514 601L514 601L386 601L386 601L257 601L257 601L129 601L129 601L0 601Z" fill="#9900ff"></path><path d="M0 454L129 454L129 363L257 363L257 365L386 365L386 463L514 463L514 416L643 416L643 397L771 397L771 464L900 464L900 433L900 601L900 601L771 601L771 601L643 601L643 601L514 601L514 601L386 601L386 601L257 601L257 601L129 601L129 601L0 601Z" fill="#7700c6"></path><path d="M0 538L129 538L129 496L257 496L257 443L386 443L386 473L514 473L514 481L643 481L643 523L771 523L771 520L900 520L900 521L900 601L900 601L771 601L771 601L643 601L643 601L514 601L514 601L386 601L386 601L257 601L257 601L129 601L129 601L0 601Z" fill="#560090"></path></svg>